<?xml version="1.0" encoding="UTF-8"?>
<svg version="1.1" xmlns="http://www.w3.org/2000/svg" width="578" height="578">
<path d="M0 0 C10.62093336 3.76158057 14.62379939 15.18938292 19.25 24.625 C19.70890625 25.59566406 20.1678125 26.56632812 20.640625 27.56640625 C21.89916937 29.8773541 23.13585516 31.25866572 25 33.0625 C25 33.7225 25 34.3825 25 35.0625 C28.81982747 37.13667706 28.81982747 37.13667706 33 38.0625 C40.79110063 35.16348581 47.14033513 28.89474297 53.1875 23.375 C61.99664517 15.39639247 61.99664517 15.39639247 67 14.5625 C70.95196232 15.22116039 72.97158643 16.43787491 76 19.0625 C79.01263186 24.82975495 79.99292124 30.61445666 81 37 C81.34151918 39.06786193 81.68397007 41.1355702 82.02734375 43.203125 C82.19218262 44.20794922 82.35702148 45.21277344 82.52685547 46.24804688 C83.35889967 51.19737897 84.32338117 56.11652986 85.359375 61.02734375 C85.9325366 64.07322257 86.06169507 66.9687769 86.078125 70.06640625 C86.23510871 75.35892946 86.39487419 80.34238272 89 85.0625 C94.50232108 90.12104414 101.59081273 92.91223428 108.36914062 95.86328125 C113.66984581 98.27948985 118.27854252 101.67474728 123 105.0625 C123.91523438 105.70574219 124.83046875 106.34898437 125.7734375 107.01171875 C136.85959332 114.91487465 147.14042352 123.68576856 157 133.0625 C157.56654297 133.60036133 158.13308594 134.13822266 158.71679688 134.69238281 C170.8913227 146.3355343 180.94050675 158.85300436 190 173.0625 C190.93199219 174.46242188 190.93199219 174.46242188 191.8828125 175.890625 C213.0207729 208.58172165 223.60145829 247.6255387 230.734375 285.53125 C231.65890983 290.4271449 232.74671035 295.19632349 234.0625 300 C236.50805791 309.23991126 237.81122993 318.71318539 239.25024414 328.15209961 C239.54789673 330.0877478 239.54789673 330.0877478 239.8515625 332.0625 C240.02510254 333.2175 240.19864258 334.3725 240.37744141 335.5625 C240.96506161 339.12467565 240.96506161 339.12467565 241.96826172 342.81469727 C243.2590419 347.82784965 243.94303216 352.90536534 244.65625 358.02734375 C244.80404907 359.06008926 244.95184814 360.09283478 245.10412598 361.15687561 C245.57337189 364.43736856 246.03725782 367.71858377 246.5 371 C246.96298229 374.27780844 247.42727233 377.55540265 247.89587402 380.83241272 C248.18640222 382.86435817 248.47378417 384.89675691 248.75744629 386.92967224 C249.35815149 391.13336283 250.00996241 395.27000908 250.99780273 399.40112305 C252.39726515 405.44359403 252.99514302 411.58660302 253.69140625 417.7421875 C253.92081132 419.71239576 254.15021972 421.68260363 254.37982845 423.65278816 C254.69735855 426.38679557 255.01073275 429.12127238 255.32397461 431.85577393 C255.87527507 436.66723883 256.42940485 441.4783696 256.98924255 446.28884888 C257.2862821 448.84485446 257.58021247 451.40122366 257.8707428 453.95797729 C258.00435715 455.10992584 258.1379715 456.26187439 258.27563477 457.44873047 C258.39173599 458.46305145 258.50783722 459.47737244 258.62745667 460.52243042 C258.94117621 463.17805053 258.94117621 463.17805053 260 466.0625 C260 469.3625 260 472.6625 260 476.0625 C86.42 476.0625 -87.16 476.0625 -266 476.0625 C-267.26433111 473.53383779 -267.19226672 471.66466877 -267.28125 468.83422852 C-267.33635742 467.19726768 -267.33635742 467.19726768 -267.39257812 465.52723694 C-267.42802734 464.34391281 -267.46347656 463.16058868 -267.5 461.94140625 C-267.54060547 460.7305687 -267.58121094 459.51973114 -267.62304688 458.27220154 C-267.75309833 454.38993101 -267.8772254 450.50750707 -268 446.625 C-268.16159071 441.52195288 -268.32901459 436.41914621 -268.5 431.31640625 C-268.55317383 429.54445641 -268.55317383 429.54445641 -268.60742188 427.73670959 C-268.64416016 426.64225021 -268.68089844 425.54779083 -268.71875 424.42016602 C-268.74904297 423.45579117 -268.77933594 422.49141632 -268.81054688 421.49781799 C-268.9121372 418.92326233 -268.9121372 418.92326233 -270 416.0625 C-270.09239538 414.40101517 -270.12791251 412.73607273 -270.12939453 411.07202148 C-270.13254669 410.05764511 -270.13569885 409.04326874 -270.13894653 407.99815369 C-270.1369223 406.90434891 -270.13489807 405.81054413 -270.1328125 404.68359375 C-270.13376923 403.56058365 -270.13472595 402.43757355 -270.13571167 401.28053284 C-270.13639243 398.9058527 -270.13454536 396.5311707 -270.13037109 394.15649414 C-270.12501643 390.51118822 -270.13032219 386.86600523 -270.13671875 383.22070312 C-270.13605805 380.91666639 -270.13477705 378.61262974 -270.1328125 376.30859375 C-270.13483673 375.21276474 -270.13686096 374.11693573 -270.13894653 372.98789978 C-270.13579437 371.97667557 -270.13264221 370.96545135 -270.12939453 369.92358398 C-270.12859894 369.0310643 -270.12780334 368.13854462 -270.12698364 367.21897888 C-270 365.0625 -270 365.0625 -269 363.0625 C-268.84114803 361.67589288 -268.73566877 360.2829565 -268.65869141 358.8894043 C-268.60824677 358.02105453 -268.55780212 357.15270477 -268.50582886 356.25804138 C-268.45492096 355.31050491 -268.40401306 354.36296844 -268.3515625 353.38671875 C-268.23433147 351.35577797 -268.11680665 349.32485414 -267.99902344 347.29394531 C-267.93839722 346.22583618 -267.877771 345.15772705 -267.81530762 344.05725098 C-265.97912879 312.14731325 -262.62868531 281.33297887 -256 250.0625 C-255.72720215 248.77375977 -255.4544043 247.48501953 -255.17333984 246.15722656 C-253.73220546 239.41404158 -252.23438035 232.6861541 -250.67333984 225.96972656 C-250.04604578 223.26130823 -249.43825838 220.54912915 -248.83203125 217.8359375 C-245.69281854 204.17524687 -241.03835414 191.12882728 -236 178.0625 C-235.53956299 176.85424561 -235.53956299 176.85424561 -235.06982422 175.62158203 C-231.3306343 165.9500851 -226.51775228 157.88278511 -220.20800781 149.66894531 C-218.36313744 147.21558091 -216.67013859 144.65837993 -214.9375 142.125 C-211.86447565 137.91109236 -208.6888943 134.95359026 -204.46875 131.92578125 C-201.54526831 129.71929269 -198.91058609 127.25886136 -196.25 124.75 C-187.68246353 116.76296456 -178.5179235 109.78828598 -168.53515625 103.640625 C-166.19451438 102.18358445 -163.94573215 100.64284662 -161.6875 99.0625 C-155.78837032 95.10871611 -149.39213567 92.11960837 -143 89.0625 C-141.9584375 88.5571875 -140.916875 88.051875 -139.84375 87.53125 C-127.95100136 81.88519761 -115.67095363 77.10864866 -103.125 73.125 C-102.4652417 72.91351318 -101.8054834 72.70202637 -101.12573242 72.48413086 C-97.87920581 71.48653786 -95.44451286 71.0625 -92 71.0625 C-92.01047363 70.40580322 -92.02094727 69.74910645 -92.03173828 69.07250977 C-92.2041259 56.47621195 -92.12694097 43.94261155 -91.1875 31.375 C-91.11740723 30.34383057 -91.04731445 29.31266113 -90.97509766 28.25024414 C-90.43674405 21.75937597 -89.87115104 15.61463426 -84.75 11.0625 C-81.04725916 9.71604878 -78.8412707 10.21510209 -75 11.0625 C-72.58408473 12.40807306 -70.43149887 13.73418804 -68.1875 15.3125 C-66.95540655 16.13753205 -65.72102026 16.95915022 -64.484375 17.77734375 C-63.59008789 18.37071533 -63.59008789 18.37071533 -62.67773438 18.97607422 C-54.09237575 24.53556867 -41.38056684 30.85913657 -31 29.0625 C-22.08248006 26.36072351 -18.43803774 19.34638268 -14.01757812 11.7800293 C-7.12626832 0.14846392 -7.12626832 0.14846392 0 0 Z " fill="#FDFDFD" transform="translate(303,101.9375)"/>
<path d="M0 0 C10.62093336 3.76158057 14.62379939 15.18938292 19.25 24.625 C19.70890625 25.59566406 20.1678125 26.56632812 20.640625 27.56640625 C21.89916937 29.8773541 23.13585516 31.25866572 25 33.0625 C25 33.7225 25 34.3825 25 35.0625 C28.81982747 37.13667706 28.81982747 37.13667706 33 38.0625 C40.79110063 35.16348581 47.14033513 28.89474297 53.1875 23.375 C61.99664517 15.39639247 61.99664517 15.39639247 67 14.5625 C70.95196232 15.22116039 72.97158643 16.43787491 76 19.0625 C79.01263186 24.82975495 79.99292124 30.61445666 81 37 C81.34151918 39.06786193 81.68397007 41.1355702 82.02734375 43.203125 C82.19218262 44.20794922 82.35702148 45.21277344 82.52685547 46.24804688 C83.35889967 51.19737897 84.32338117 56.11652986 85.359375 61.02734375 C85.9325366 64.07322257 86.06169507 66.9687769 86.078125 70.06640625 C86.23510871 75.35892946 86.39487419 80.34238272 89 85.0625 C94.50232108 90.12104414 101.59081273 92.91223428 108.36914062 95.86328125 C113.66984581 98.27948985 118.27854252 101.67474728 123 105.0625 C123.91523438 105.70574219 124.83046875 106.34898437 125.7734375 107.01171875 C136.85959332 114.91487465 147.14042352 123.68576856 157 133.0625 C157.56654297 133.60036133 158.13308594 134.13822266 158.71679688 134.69238281 C170.8913227 146.3355343 180.94050675 158.85300436 190 173.0625 C190.93199219 174.46242188 190.93199219 174.46242188 191.8828125 175.890625 C213.0207729 208.58172165 223.60145829 247.6255387 230.734375 285.53125 C231.65890983 290.4271449 232.74671035 295.19632349 234.0625 300 C236.50805791 309.23991126 237.81122993 318.71318539 239.25024414 328.15209961 C239.54789673 330.0877478 239.54789673 330.0877478 239.8515625 332.0625 C240.02510254 333.2175 240.19864258 334.3725 240.37744141 335.5625 C240.96506161 339.12467565 240.96506161 339.12467565 241.96826172 342.81469727 C243.2590419 347.82784965 243.94303216 352.90536534 244.65625 358.02734375 C244.80404907 359.06008926 244.95184814 360.09283478 245.10412598 361.15687561 C245.57337189 364.43736856 246.03725782 367.71858377 246.5 371 C246.96298229 374.27780844 247.42727233 377.55540265 247.89587402 380.83241272 C248.18640222 382.86435817 248.47378417 384.89675691 248.75744629 386.92967224 C249.35815149 391.13336283 250.00996241 395.27000908 250.99780273 399.40112305 C252.39726515 405.44359403 252.99514302 411.58660302 253.69140625 417.7421875 C253.92081132 419.71239576 254.15021972 421.68260363 254.37982845 423.65278816 C254.69735855 426.38679557 255.01073275 429.12127238 255.32397461 431.85577393 C255.87527507 436.66723883 256.42940485 441.4783696 256.98924255 446.28884888 C257.2862821 448.84485446 257.58021247 451.40122366 257.8707428 453.95797729 C258.00435715 455.10992584 258.1379715 456.26187439 258.27563477 457.44873047 C258.39173599 458.46305145 258.50783722 459.47737244 258.62745667 460.52243042 C258.94117621 463.17805053 258.94117621 463.17805053 260 466.0625 C260 469.3625 260 472.6625 260 476.0625 C232.28 476.0625 204.56 476.0625 176 476.0625 C174.02 470.4525 172.04 464.8425 170 459.0625 C169.38125 457.37125 168.7625 455.68 168.125 453.9375 C166.87654093 450.19212279 166.74916452 446.99225583 167 443.0625 C166.33355469 443.09730469 165.66710937 443.13210938 164.98046875 443.16796875 C151.3421788 443.56853391 138.67134099 439.07162549 128.125 430.3125 C118.79342251 421.3859096 114.00816687 409.42771044 113.57836914 396.59619141 C113.52660031 389.3501487 114.15535232 382.78195583 117 376.0625 C117.28230469 375.28132813 117.56460937 374.50015625 117.85546875 373.6953125 C122.27511313 363.09493939 131.57660224 354.26958203 141.8125 349.3125 C146.54128376 347.43224551 150.8984914 346.12211696 156 346.0625 C157.19496094 346.00191406 158.38992188 345.94132812 159.62109375 345.87890625 C174.72022867 345.2971214 187.61855637 349.85293668 199 360.0625 C208.41436611 372.93297061 212.43363652 385.97598111 211 402.0625 C210.23907534 405.82561834 209.19241058 409.41730704 208 413.0625 C207.65500725 414.3928642 207.31735993 415.72527468 207 417.0625 C207.55945313 417.53816406 208.11890625 418.01382812 208.6953125 418.50390625 C222.18618141 430.28130467 233.39359732 443.68270573 244 458.0625 C244.99899444 459.39658691 245.99834856 460.73040685 247 462.0625 C245.50360795 445.32653627 243.29846933 428.70496172 241 412.0625 C240.84273437 410.90717773 240.68546875 409.75185547 240.5234375 408.56152344 C238.03653163 390.31543224 235.09811394 372.15635737 232.00601196 354.00479126 C231.29671279 349.83990355 230.615699 345.67129379 229.9453125 341.5 C229.41721076 338.3040085 228.82076576 335.18189708 227.9921875 332.05078125 C226.62005672 326.85781456 225.9252166 321.55509452 225.125 316.25 C222.70843509 300.7342451 219.51898987 285.49411477 215.57275391 270.29736328 C214.94202639 267.83628923 214.33611453 265.36970574 213.73046875 262.90234375 C211.00550338 251.95541731 207.87082934 241.20679107 204.3125 230.5 C203.93198486 229.35233154 203.55146973 228.20466309 203.15942383 227.0222168 C201.40292406 221.83162652 199.58987144 216.90708304 197 212.0625 C196.46138197 210.67343245 195.94008677 209.27750654 195.4375 207.875 C178.59743537 165.4558978 140.41165904 123.79430719 99 104.0625 C99 103.4025 99 102.7425 99 102.0625 C98.41992188 101.94003906 97.83984375 101.81757813 97.2421875 101.69140625 C94.95533182 101.04997112 93.19146776 100.15771989 91.125 99 C88.25967926 97.5008897 87.14299088 97.05969626 83.8125 97.125 C79.76983352 97.03516297 78.83226105 94.89476105 76 92.0625 C61.52765568 83.3164179 43.20759694 79.84509054 26.8125 76.6875 C26.15600464 76.56021515 25.49950928 76.4329303 24.82312012 76.30178833 C-38.57628495 64.14265836 -110.05170691 78.28295848 -163.875 114.0625 C-175.36868158 121.889804 -185.92820674 130.48310552 -196 140.0625 C-196.63292969 140.64257812 -197.26585937 141.22265625 -197.91796875 141.8203125 C-209.54878469 152.81571569 -219.65200899 167.00701821 -225 182.0625 C-225.47744388 183.33398157 -225.95654127 184.60484381 -226.4375 185.875 C-226.67726562 186.52855469 -226.91703125 187.18210937 -227.1640625 187.85546875 C-227.77675679 189.47309621 -228.42216653 191.07843313 -229.0859375 192.67578125 C-236.62505634 211.18743928 -240.42984924 230.898656 -244.28417969 250.43603516 C-244.97423835 253.93198718 -245.67766831 257.42503347 -246.3828125 260.91796875 C-251.87103868 288.37933647 -254.43812808 315.94411472 -256.80368042 343.81924438 C-256.96628069 345.67720457 -257.14692405 347.5335757 -257.33227539 349.3894043 C-258.43581685 361.13388622 -258.19469645 372.96571238 -258.1875 384.75 C-258.18858765 386.56306137 -258.18858765 386.56306137 -258.18969727 388.41275024 C-258.18851413 406.36132834 -257.77634818 424.2436677 -256.71166992 442.16088867 C-256.04655065 453.47490143 -255.89271038 464.72928869 -256 476.0625 C-259.3 476.0625 -262.6 476.0625 -266 476.0625 C-267.26433111 473.53383779 -267.19226672 471.66466877 -267.28125 468.83422852 C-267.33635742 467.19726768 -267.33635742 467.19726768 -267.39257812 465.52723694 C-267.42802734 464.34391281 -267.46347656 463.16058868 -267.5 461.94140625 C-267.54060547 460.7305687 -267.58121094 459.51973114 -267.62304688 458.27220154 C-267.75309833 454.38993101 -267.8772254 450.50750707 -268 446.625 C-268.16159071 441.52195288 -268.32901459 436.41914621 -268.5 431.31640625 C-268.55317383 429.54445641 -268.55317383 429.54445641 -268.60742188 427.73670959 C-268.64416016 426.64225021 -268.68089844 425.54779083 -268.71875 424.42016602 C-268.74904297 423.45579117 -268.77933594 422.49141632 -268.81054688 421.49781799 C-268.9121372 418.92326233 -268.9121372 418.92326233 -270 416.0625 C-270.09239538 414.40101517 -270.12791251 412.73607273 -270.12939453 411.07202148 C-270.13254669 410.05764511 -270.13569885 409.04326874 -270.13894653 407.99815369 C-270.1369223 406.90434891 -270.13489807 405.81054413 -270.1328125 404.68359375 C-270.13376923 403.56058365 -270.13472595 402.43757355 -270.13571167 401.28053284 C-270.13639243 398.9058527 -270.13454536 396.5311707 -270.13037109 394.15649414 C-270.12501643 390.51118822 -270.13032219 386.86600523 -270.13671875 383.22070312 C-270.13605805 380.91666639 -270.13477705 378.61262974 -270.1328125 376.30859375 C-270.13483673 375.21276474 -270.13686096 374.11693573 -270.13894653 372.98789978 C-270.13579437 371.97667557 -270.13264221 370.96545135 -270.12939453 369.92358398 C-270.12859894 369.0310643 -270.12780334 368.13854462 -270.12698364 367.21897888 C-270 365.0625 -270 365.0625 -269 363.0625 C-268.84114803 361.67589288 -268.73566877 360.2829565 -268.65869141 358.8894043 C-268.60824677 358.02105453 -268.55780212 357.15270477 -268.50582886 356.25804138 C-268.45492096 355.31050491 -268.40401306 354.36296844 -268.3515625 353.38671875 C-268.23433147 351.35577797 -268.11680665 349.32485414 -267.99902344 347.29394531 C-267.93839722 346.22583618 -267.877771 345.15772705 -267.81530762 344.05725098 C-265.97912879 312.14731325 -262.62868531 281.33297887 -256 250.0625 C-255.72720215 248.77375977 -255.4544043 247.48501953 -255.17333984 246.15722656 C-253.73220546 239.41404158 -252.23438035 232.6861541 -250.67333984 225.96972656 C-250.04604578 223.26130823 -249.43825838 220.54912915 -248.83203125 217.8359375 C-245.69281854 204.17524687 -241.03835414 191.12882728 -236 178.0625 C-235.53956299 176.85424561 -235.53956299 176.85424561 -235.06982422 175.62158203 C-231.3306343 165.9500851 -226.51775228 157.88278511 -220.20800781 149.66894531 C-218.36313744 147.21558091 -216.67013859 144.65837993 -214.9375 142.125 C-211.86447565 137.91109236 -208.6888943 134.95359026 -204.46875 131.92578125 C-201.54526831 129.71929269 -198.91058609 127.25886136 -196.25 124.75 C-187.68246353 116.76296456 -178.5179235 109.78828598 -168.53515625 103.640625 C-166.19451438 102.18358445 -163.94573215 100.64284662 -161.6875 99.0625 C-155.78837032 95.10871611 -149.39213567 92.11960837 -143 89.0625 C-141.9584375 88.5571875 -140.916875 88.051875 -139.84375 87.53125 C-127.95100136 81.88519761 -115.67095363 77.10864866 -103.125 73.125 C-102.4652417 72.91351318 -101.8054834 72.70202637 -101.12573242 72.48413086 C-97.87920581 71.48653786 -95.44451286 71.0625 -92 71.0625 C-92.01047363 70.40580322 -92.02094727 69.74910645 -92.03173828 69.07250977 C-92.2041259 56.47621195 -92.12694097 43.94261155 -91.1875 31.375 C-91.11740723 30.34383057 -91.04731445 29.31266113 -90.97509766 28.25024414 C-90.43674405 21.75937597 -89.87115104 15.61463426 -84.75 11.0625 C-81.04725916 9.71604878 -78.8412707 10.21510209 -75 11.0625 C-72.58408473 12.40807306 -70.43149887 13.73418804 -68.1875 15.3125 C-66.95540655 16.13753205 -65.72102026 16.95915022 -64.484375 17.77734375 C-63.59008789 18.37071533 -63.59008789 18.37071533 -62.67773438 18.97607422 C-54.09237575 24.53556867 -41.38056684 30.85913657 -31 29.0625 C-22.08248006 26.36072351 -18.43803774 19.34638268 -14.01757812 11.7800293 C-7.12626832 0.14846392 -7.12626832 0.14846392 0 0 Z " fill="#120B13" transform="translate(303,101.9375)"/>
<path d="M0 0 C7.68584513 6.10597696 14.81777242 15.55011591 19.1640625 24.359375 C19.89470476 26.19481521 19.89470476 26.19481521 22 27 C22.20625 26.319375 22.4125 25.63875 22.625 24.9375 C27.76489868 13.95680737 39.9920887 6.22571458 51 2 C61.31808933 -1.59248544 71.35104913 -2.39851063 82.25 -2.5 C83.40935059 -2.51844971 84.56870117 -2.53689941 85.76318359 -2.5559082 C104.18819919 -2.42383393 117.84875434 5.71958007 131 18 C141.37036448 28.99838345 149.59423648 41.72702021 150.5 57.125 C150.01489958 72.51591343 142.89023899 87.78077357 132.39453125 98.78125 C115.81103989 114.14735618 90.23641746 114.82903267 68.9296875 114.14794922 C51.74161502 113.27995156 38.14288888 108.77236974 26 96 C23.216386 92.74942796 20.56180167 89.42766201 18 86 C17.24074219 86.97582031 16.48148437 87.95164062 15.69921875 88.95703125 C14.69541876 90.2422705 13.69150662 91.52742216 12.6875 92.8125 C12.18798828 93.45509766 11.68847656 94.09769531 11.17382812 94.75976562 C10.68720703 95.38173828 10.20058594 96.00371094 9.69921875 96.64453125 C9.03152466 97.50075073 9.03152466 97.50075073 8.3503418 98.37426758 C6.97291968 100.03260312 5.61459806 101.56946341 4 103 C3.34 103 2.68 103 2 103 C2 103.66 2 104.32 2 105 C-1.16433746 107.26950433 -4.60788371 109.09316006 -8 111 C-8.64453125 111.38800781 -9.2890625 111.77601563 -9.953125 112.17578125 C-24.6327066 120.44102393 -46.47249035 120.39951416 -62.5 116.5 C-81.92330411 110.76588527 -97.88640035 99.8285758 -107.73828125 81.90625 C-114.50915337 66.31018542 -112.62946192 44.77300872 -107 29 C-100.97169216 13.92745632 -90.96709468 3.46717878 -76 -3 C-53.24686424 -12.18532832 -21.01541449 -14.43983669 0 0 Z " fill="#090909" transform="translate(230,257)"/>
<path d="M0 0 C15.09913492 -0.58178485 27.99746262 3.97403043 39.37890625 14.18359375 C48.79327236 27.05406436 52.81254277 40.09707486 51.37890625 56.18359375 C50.61798159 59.94671209 49.57131683 63.53840079 48.37890625 67.18359375 C48.0339135 68.51395795 47.69626618 69.84636843 47.37890625 71.18359375 C47.93835938 71.65925781 48.4978125 72.13492188 49.07421875 72.625 C62.56508766 84.40239842 73.77250357 97.80379948 84.37890625 112.18359375 C85.37790069 113.51768066 86.37725481 114.8515006 87.37890625 116.18359375 C86.34744699 104.64753629 85.03938401 93.16371812 83.50390625 81.68359375 C83.33511963 80.42063477 83.16633301 79.15767578 82.99243164 77.85644531 C82.10955098 71.33506478 81.1828728 64.82278134 80.1953125 58.31640625 C80.00630371 57.05505859 79.81729492 55.79371094 79.62255859 54.49414062 C79.261393 52.10074478 78.8911427 49.70869575 78.51025391 47.31835938 C77.60240893 41.29234791 77.24710637 36.18578406 78.37890625 30.18359375 C79.86390625 30.67859375 79.86390625 30.67859375 81.37890625 31.18359375 C81.43949219 31.82167969 81.50007812 32.45976562 81.5625 33.1171875 C81.64628906 33.94347656 81.73007812 34.76976562 81.81640625 35.62109375 C81.93822266 36.85666016 81.93822266 36.85666016 82.0625 38.1171875 C82.1682144 40.170214 82.1682144 40.170214 83.37890625 41.18359375 C83.75851756 43.34263308 84.08188842 45.51165085 84.37890625 47.68359375 C84.55164063 48.94429688 84.724375 50.205 84.90234375 51.50390625 C85.44921834 55.72649528 85.94078619 59.9484332 86.37890625 64.18359375 C87.03890625 64.18359375 87.69890625 64.18359375 88.37890625 64.18359375 C88.43949219 64.89386719 88.50007812 65.60414063 88.5625 66.3359375 C88.64628906 67.25503906 88.73007812 68.17414063 88.81640625 69.12109375 C88.93822266 70.49587891 88.93822266 70.49587891 89.0625 71.8984375 C89.13935601 74.14519107 89.13935601 74.14519107 90.37890625 75.18359375 C93.0055407 93.2303053 92.77634161 112.10665469 93.37890625 130.18359375 C67.96890625 130.18359375 42.55890625 130.18359375 16.37890625 130.18359375 C13.40890625 121.76859375 13.40890625 121.76859375 10.37890625 113.18359375 C9.76015625 111.49234375 9.14140625 109.80109375 8.50390625 108.05859375 C7.25544718 104.31321654 7.12807077 101.11334958 7.37890625 97.18359375 C6.37923828 97.23580078 6.37923828 97.23580078 5.359375 97.2890625 C-8.27891495 97.68962766 -20.94975276 93.19271924 -31.49609375 84.43359375 C-40.82767124 75.50700335 -45.61292688 63.54880419 -46.04272461 50.71728516 C-46.09449344 43.47124245 -45.46574143 36.90304958 -42.62109375 30.18359375 C-42.19763672 29.01183594 -42.19763672 29.01183594 -41.765625 27.81640625 C-37.34598062 17.21603314 -28.04449151 8.39067578 -17.80859375 3.43359375 C-11.69422106 1.0024027 -6.47208549 0.32814241 0 0 Z " fill="#687891" transform="translate(462.62109375,447.81640625)"/>
<path d="M0 0 C1.09687637 -0.01968338 1.09687637 -0.01968338 2.21591187 -0.0397644 C14.9661106 -0.21721535 25.89656463 1.98983216 35.3984375 11.12890625 C48.24862953 25.53464785 55.6173535 39.96399629 54.625 59.625 C52.90076697 75.12154432 45.46924758 90.62859292 33.2734375 100.53515625 C21.4463281 109.15832734 10.36922001 111.97924603 -4.125 111.9375 C-5.2284375 111.95361328 -6.331875 111.96972656 -7.46875 111.98632812 C-18.1964099 111.9926237 -27.94746997 109.93001938 -37.5 105 C-38.17667725 104.65517578 -38.85335449 104.31035156 -39.55053711 103.95507812 C-45.675023 100.70037221 -50.58248384 96.63898178 -55.375 91.625 C-56.04144531 90.97789062 -56.70789063 90.33078125 -57.39453125 89.6640625 C-62.22907062 84.67685347 -66.375 77.79477255 -66.375 70.625 C-65.67375 70.91375 -64.9725 71.2025 -64.25 71.5 C-62.826875 72.056875 -62.826875 72.056875 -61.375 72.625 C-60.075625 73.181875 -60.075625 73.181875 -58.75 73.75 C-51.06691596 75.74191068 -43.43286633 75.37196794 -36.375 71.625 C-30.95299946 68.094395 -26.85383814 62.59823553 -24.375 56.625 C-23.4598292 50.54439404 -23.54516981 45.08090715 -26.8125 39.75 C-30.24457506 35.25813929 -34.4694771 32.34533543 -39.375 29.625 C-39.95507812 29.24472656 -40.53515625 28.86445313 -41.1328125 28.47265625 C-44.56751857 27.17416981 -48.00874423 27.41694112 -51.625 27.5 C-52.37007812 27.50902344 -53.11515625 27.51804687 -53.8828125 27.52734375 C-55.71368059 27.55081642 -57.54438238 27.58668475 -59.375 27.625 C-56.45308273 19.20388459 -50.03640767 13.2083238 -42.4375 8.8125 C-28.31151037 2.00751413 -15.53540274 0.13990974 0 0 Z " fill="#FCFCFC" transform="translate(193.375,255.375)"/>
<path d="M0 0 C3.60137061 2.76052196 6.81718665 5.77007263 10 9 C10.78375 9.78503906 11.5675 10.57007813 12.375 11.37890625 C21.81232404 21.31041449 28.65641299 32.21992064 28.3125 46.234375 C26.90995671 58.6468831 20.77440914 72.88895522 11 81 C-9.06574809 93.56004635 -35.64559226 94.54766097 -58.57421875 90.875 C-73.34964781 87.10111618 -82.62144802 78.06782797 -90.8828125 65.67578125 C-92.29025538 62.30480791 -91.98092485 60.48085469 -91 57 C-90.34 56.01 -89.68 55.02 -89 54 C-88.11248047 54.52400391 -88.11248047 54.52400391 -87.20703125 55.05859375 C-86.41683594 55.51363281 -85.62664062 55.96867187 -84.8125 56.4375 C-84.03519531 56.88996094 -83.25789063 57.34242188 -82.45703125 57.80859375 C-76.57412342 60.66119612 -70.07486153 60.85988976 -63.875 58.875 C-58.34453089 56.57509505 -55.85185363 52.674333 -53.1875 47.4375 C-50.73632211 40.0272917 -50.78686467 31.80874743 -53.875 24.625 C-57.38005438 18.45086686 -63.31565185 14.22811605 -70 12 C-72.06145107 11.931009 -74.12501401 11.91532273 -76.1875 11.9375 C-77.27417969 11.94652344 -78.36085938 11.95554687 -79.48046875 11.96484375 C-80.31191406 11.97644531 -81.14335937 11.98804688 -82 12 C-63.34736796 -11.88102133 -25.10064749 -15.59850278 0 0 Z " fill="#FBFBFB" transform="translate(344,271)"/>
<path d="M0 0 C0.66 0 1.32 0 2 0 C2.45270264 0.84594727 2.45270264 0.84594727 2.91455078 1.70898438 C4.31128026 4.30968083 5.71805947 6.90481436 7.125 9.5 C7.599375 10.386875 8.07375 11.27375 8.5625 12.1875 C12.5537633 19.52279472 16.77794836 26.52288987 23.25 31.9375 C23.91515625 32.50339844 24.5803125 33.06929687 25.265625 33.65234375 C28.81464142 36.41002542 31.80563507 36.38729583 36.19140625 36.35546875 C41.53898544 35.67865414 46.84024126 33.16992231 50.66015625 29.33203125 C52 28 52 28 54 28 C54 27.34 54 26.68 54 26 C56.49950029 23.481893 59.27714251 21.27242196 62 19 C62.928125 18.195625 63.85625 17.39125 64.8125 16.5625 C67 15 67 15 70 15 C71.55208913 20.09030147 72.63178767 25.10423711 73.47265625 30.35546875 C73.60063095 31.1383577 73.72860565 31.92124664 73.86045837 32.7278595 C74.12886372 34.37723594 74.39515206 36.02695816 74.65942383 37.67700195 C75.05873253 40.16403488 75.46736531 42.64940747 75.87695312 45.13476562 C77.27761495 53.74187611 78.48744146 62.28433758 79 71 C72.30997894 69.25477711 66.00803938 66.71964294 59.66015625 63.99609375 C56.35325536 62.7578269 52.98813251 61.89534864 49.5625 61.0625 C48.85222656 60.88920166 48.14195312 60.71590332 47.41015625 60.53735352 C45.95650191 60.18545884 44.50223708 59.83607621 43.04736328 59.48925781 C41.25732444 59.06149275 39.47019201 58.62160226 37.68359375 58.1796875 C34.13800989 57.35310967 30.58267701 56.64174891 27 56 C26.23977539 55.86174805 25.47955078 55.72349609 24.69628906 55.58105469 C-7.99123952 49.92678871 -42.85937204 51.47092325 -75.14086914 58.66455078 C-77 59 -77 59 -80 59 C-80.2457476 47.79117884 -79.91281923 36.68568763 -79.125 25.5 C-79.04652832 24.31301514 -78.96805664 23.12603027 -78.88720703 21.90307617 C-78.80325684 20.79037354 -78.71930664 19.6776709 -78.6328125 18.53125 C-78.55949707 17.53673828 -78.48618164 16.54222656 -78.41064453 15.51757812 C-78 13 -78 13 -76 10 C-75.04480469 10.59167969 -74.08960938 11.18335937 -73.10546875 11.79296875 C-65.60188297 16.3958042 -58.16350596 20.64568815 -50 24 C-49.15050781 24.35964844 -48.30101562 24.71929687 -47.42578125 25.08984375 C-44.00775534 26.37229148 -40.61145207 26.72803426 -37 27 C-36.21238281 27.06574219 -35.42476563 27.13148438 -34.61328125 27.19921875 C-26.90405107 27.55018841 -20.34909711 25.72600928 -14.3125 20.8125 C-13.1678125 19.4203125 -13.1678125 19.4203125 -12 18 C-11.44699219 17.33871094 -10.89398438 16.67742187 -10.32421875 15.99609375 C-6.24016847 10.96755219 -2.95438431 5.7590072 0 0 Z " fill="#F4D014" transform="translate(301,114)"/>
<path d="M0 0 C1.75 0.75 1.75 0.75 2.75 1.75 C5.07817964 2.11760731 7.4118385 2.45241581 9.75 2.75 C9.75 4.07 9.75 5.39 9.75 6.75 C8.780625 7.059375 7.81125 7.36875 6.8125 7.6875 C5.801875 8.368125 4.79125 9.04875 3.75 9.75 C3.02416312 13.4244683 3.02416312 13.4244683 2.94506836 16.13549805 C2.73810172 18.90947276 2.16699873 21.3355807 1.44140625 24.01953125 C0.17580051 28.9189283 -0.915994 33.83400752 -1.8984375 38.796875 C-2.03939346 39.50340714 -2.18034943 40.20993927 -2.32557678 40.93788147 C-2.90511627 43.84940913 -3.48179049 46.76141022 -4.046875 49.67578125 C-8.48247929 72.46985887 -14.66995605 95.27297034 -34.25 109.75 C-48.35974976 119.05162463 -63.61413344 124.90190947 -80.25 127.75 C-81.32507813 127.95496094 -82.40015625 128.15992188 -83.5078125 128.37109375 C-113.17144473 133.26998518 -150.51145309 130.76258033 -175.8515625 112.91796875 C-178.02399502 111.23734099 -180.13957572 109.50726861 -182.25 107.75 C-182.9925 107.22792969 -183.735 106.70585937 -184.5 106.16796875 C-185.36625 105.46607422 -185.36625 105.46607422 -186.25 104.75 C-186.25 104.09 -186.25 103.43 -186.25 102.75 C-186.91 102.75 -187.57 102.75 -188.25 102.75 C-196.28546059 93.48057471 -201.13985686 83.20690907 -205.25 71.75 C-205.73919922 70.40035156 -205.73919922 70.40035156 -206.23828125 69.0234375 C-206.95489875 66.94340928 -207.61409843 64.85590779 -208.25 62.75 C-208.46914062 62.07195312 -208.68828125 61.39390625 -208.9140625 60.6953125 C-211.03652281 53.95475174 -212.65627969 47.09671676 -214.33227539 40.23535156 C-215.79054659 34.35363932 -217.4821628 28.66376493 -219.55078125 22.96484375 C-220.25 20.75 -220.25 20.75 -220.25 17.75 C-221.16523438 17.77320313 -222.08046875 17.79640625 -223.0234375 17.8203125 C-224.80621094 17.84738281 -224.80621094 17.84738281 -226.625 17.875 C-227.80835938 17.89820313 -228.99171875 17.92140625 -230.2109375 17.9453125 C-233.25 17.75 -233.25 17.75 -235.25 15.75 C-234.875 13.125 -234.875 13.125 -234.25 10.75 C-233.425 10.72494385 -232.6 10.6998877 -231.75 10.67407227 C-228.60377467 10.57728897 -225.45763172 10.47819661 -222.31152344 10.37768555 C-220.31450627 10.31453969 -218.31741011 10.25390756 -216.3203125 10.19335938 C-209.95174971 9.98843037 -203.60715885 9.7235674 -197.25 9.27734375 C-184.3724952 8.40877693 -171.45631575 8.17097076 -158.55646515 7.81411743 C-156.23021896 7.74945011 -153.90401789 7.68331739 -151.57781982 7.61694336 C-132.50378628 7.07626832 -113.43224118 6.67534577 -94.3515625 6.46875 C-93.44955864 6.45877991 -92.54755478 6.44880981 -91.61821747 6.4385376 C-82.79390267 6.34179077 -73.96964641 6.25480634 -65.14498329 6.197258 C-61.86212046 6.17433281 -58.5793437 6.14430825 -55.29655075 6.11305237 C-53.79002694 6.10051805 -52.28347117 6.09124508 -50.77690506 6.08580017 C-41.1577214 6.05057573 -31.76437865 5.39856266 -22.21591187 4.21813965 C-18.78663334 3.81334466 -15.38319024 3.52069335 -11.9375 3.3125 C-7.54768714 2.95675064 -3.9938762 -0.44376402 0 0 Z M-21.56388855 12.22389221 C-27.65689581 13.09352912 -33.78511026 13.41366221 -39.92578125 13.77734375 C-40.67010218 13.82143812 -41.4144231 13.86553249 -42.18129921 13.91096306 C-64.43229871 15.18648256 -86.71784318 15.16660911 -108.99847412 15.29260254 C-119.20088164 15.35163147 -129.40319032 15.42596804 -139.60546875 15.50390625 C-140.68994167 15.51198492 -141.7744146 15.52006359 -142.89175034 15.52838707 C-166.01442683 15.70656915 -189.18511212 15.96702347 -212.25 17.75 C-211.02175088 23.49042227 -209.65719026 29.16315478 -208.0625 34.8125 C-207.84964355 35.56708496 -207.63678711 36.32166992 -207.41748047 37.09912109 C-206.94933336 38.75377325 -206.4798789 40.40805596 -206.00927734 42.06201172 C-205.19773806 44.93501733 -204.40577929 47.81309418 -203.61328125 50.69140625 C-199.25194553 66.33244333 -194.83405179 82.044809 -184.25 94.75 C-183.56808594 95.57886719 -182.88617188 96.40773438 -182.18359375 97.26171875 C-166.45388267 114.64158565 -141.06091291 120.54665849 -118.55566406 121.98632812 C-89.24905468 123.17697978 -57.75826918 119.00268415 -34.30859375 99.68359375 C-17.04524256 83.46849159 -13.57033336 58.95620542 -9.25 36.75 C-9.00588379 35.51660889 -9.00588379 35.51660889 -8.75683594 34.25830078 C-7.27784424 26.78188595 -5.9283623 19.34765778 -5.25 11.75 C-7.27075566 11.72265143 -9.29162221 11.7034483 -11.3125 11.6875 C-12.43785156 11.67589844 -13.56320312 11.66429687 -14.72265625 11.65234375 C-18.22552654 11.68218604 -18.22552654 11.68218604 -21.56388855 12.22389221 Z " fill="#0F0F0F" transform="translate(372.25,403.25)"/>
<path d="M0 0 C10.62093336 3.76158057 14.62379939 15.18938292 19.25 24.625 C19.70890625 25.59566406 20.1678125 26.56632812 20.640625 27.56640625 C21.89916937 29.8773541 23.13585516 31.25866572 25 33.0625 C25 33.7225 25 34.3825 25 35.0625 C28.81982747 37.13667706 28.81982747 37.13667706 33 38.0625 C40.79110063 35.16348581 47.14033513 28.89474297 53.1875 23.375 C61.99664517 15.39639247 61.99664517 15.39639247 67 14.5625 C70.95196232 15.22116039 72.97158643 16.43787491 76 19.0625 C79.01263186 24.82975495 79.99292124 30.61445666 81 37 C81.34151918 39.06786193 81.68397007 41.1355702 82.02734375 43.203125 C82.19218262 44.20794922 82.35702148 45.21277344 82.52685547 46.24804688 C83.35889967 51.19737897 84.32338117 56.11652986 85.359375 61.02734375 C85.9325366 64.07322257 86.06169507 66.9687769 86.078125 70.06640625 C86.23510871 75.35892946 86.39487419 80.34238272 89 85.0625 C94.50232108 90.12104414 101.59081273 92.91223428 108.36914062 95.86328125 C113.66984581 98.27948985 118.27854252 101.67474728 123 105.0625 C123.91523438 105.70574219 124.83046875 106.34898437 125.7734375 107.01171875 C136.85959332 114.91487465 147.14042352 123.68576856 157 133.0625 C157.56654297 133.60036133 158.13308594 134.13822266 158.71679688 134.69238281 C170.8913227 146.3355343 180.94050675 158.85300436 190 173.0625 C190.93199219 174.46242188 190.93199219 174.46242188 191.8828125 175.890625 C213.0207729 208.58172165 223.60145829 247.6255387 230.734375 285.53125 C231.65890983 290.4271449 232.74671035 295.19632349 234.0625 300 C236.50805791 309.23991126 237.81122993 318.71318539 239.25024414 328.15209961 C239.54789673 330.0877478 239.54789673 330.0877478 239.8515625 332.0625 C240.02510254 333.2175 240.19864258 334.3725 240.37744141 335.5625 C240.96506161 339.12467565 240.96506161 339.12467565 241.96826172 342.81469727 C243.2590419 347.82784965 243.94303216 352.90536534 244.65625 358.02734375 C244.80404907 359.06008926 244.95184814 360.09283478 245.10412598 361.15687561 C245.57337189 364.43736856 246.03725782 367.71858377 246.5 371 C246.96298229 374.27780844 247.42727233 377.55540265 247.89587402 380.83241272 C248.18640222 382.86435817 248.47378417 384.89675691 248.75744629 386.92967224 C249.35815149 391.13336283 250.00996241 395.27000908 250.99780273 399.40112305 C252.39726515 405.44359403 252.99514302 411.58660302 253.69140625 417.7421875 C253.92081132 419.71239576 254.15021972 421.68260363 254.37982845 423.65278816 C254.69735855 426.38679557 255.01073275 429.12127238 255.32397461 431.85577393 C255.87527507 436.66723883 256.42940485 441.4783696 256.98924255 446.28884888 C257.2862821 448.84485446 257.58021247 451.40122366 257.8707428 453.95797729 C258.00435715 455.10992584 258.1379715 456.26187439 258.27563477 457.44873047 C258.39173599 458.46305145 258.50783722 459.47737244 258.62745667 460.52243042 C258.94117621 463.17805053 258.94117621 463.17805053 260 466.0625 C260.06802967 467.79045352 260.08495645 469.52085365 260.0625 471.25 C260.05347656 472.15105469 260.04445313 473.05210937 260.03515625 473.98046875 C260.01775391 475.01107422 260.01775391 475.01107422 260 476.0625 C259.01 476.0625 258.02 476.0625 257 476.0625 C256.91024902 475.2681958 256.82049805 474.4738916 256.72802734 473.65551758 C250.99372139 423.22147549 243.77826699 373.06866432 234.56347656 323.14599609 C233.98325923 319.97088999 233.42372642 316.79261724 232.8671875 313.61328125 C228.11329337 286.75686637 222.21254238 260.08531276 214 234.0625 C213.76684082 233.31613281 213.53368164 232.56976563 213.29345703 231.80078125 C210.63969347 223.36177412 207.62260944 215.13600395 204 207.0625 C203.6690332 206.31758301 203.33806641 205.57266602 202.99707031 204.80517578 C192.24703205 180.79424457 178.19424505 160.00625051 160 141.0625 C159.27079346 140.30042236 159.27079346 140.30042236 158.52685547 139.52294922 C151.75403259 132.4854768 144.7153859 126.07393922 137 120.0625 C135.93600352 119.21899516 134.87220834 118.37523633 133.80859375 117.53125 C127.1303919 112.27221553 120.27644333 107.46752175 113 103.0625 C112.16855469 102.55074219 111.33710938 102.03898437 110.48046875 101.51171875 C105.31709011 98.36490373 100.06480839 95.41597825 94.73828125 92.5546875 C93.83464844 92.06226563 92.93101562 91.56984375 92 91.0625 C91.39470459 90.82055908 90.78940918 90.57861816 90.16577148 90.3293457 C87.31964019 89.05785675 85.42013899 88.14542658 84.25854492 85.15136719 C83.82447407 82.59672211 83.60831241 80.08578524 83.4375 77.5 C83.23562853 75.44453518 83.02540835 73.38987985 82.80859375 71.3359375 C82.69112793 70.19479492 82.57366211 69.05365234 82.45263672 67.87792969 C81.66100306 61.20497884 80.53628259 54.58907319 79.400177 47.96731567 C79.00627956 45.6617555 78.62476733 43.3543734 78.24389648 41.04663086 C76.57801733 30.77826629 76.57801733 30.77826629 73 21.0625 C69.36086143 18.63640762 68.29866456 18.34605591 64 19.0625 C58.73511123 22.31649375 54.79860686 26.21600159 51 31.0625 C49.04690112 32.46363616 47.04291182 33.79589467 45 35.0625 C43.9275 35.805 42.855 36.5475 41.75 37.3125 C39 39.0625 39 39.0625 37 39.0625 C37 39.7225 37 40.3825 37 41.0625 C33.00624982 41.56171877 30.37558578 41.88483373 26.86328125 39.78515625 C22.26489628 35.92251287 18.60010472 31.500219 16 26.0625 C16 25.4025 16 24.7425 16 24.0625 C15.34 24.0625 14.68 24.0625 14 24.0625 C13.78085937 23.51722656 13.56171875 22.97195312 13.3359375 22.41015625 C10.47606216 15.60923319 7.27960202 8.24890134 1 4.0625 C-0.99551147 3.88660458 -0.99551147 3.88660458 -3.0625 4.1875 C-3.75472656 4.25195312 -4.44695312 4.31640625 -5.16015625 4.3828125 C-7.12699759 4.89639203 -7.12699759 4.89639203 -8.01953125 6.69140625 C-8.50486328 7.86509766 -8.50486328 7.86509766 -9 9.0625 C-18.2077001 26.8078563 -18.2077001 26.8078563 -28 31.5 C-45.1932251 34.72372971 -61.81123049 24.28522153 -75.7109375 15.3125 C-78.03226537 13.79065767 -78.03226537 13.79065767 -81.1875 14.1875 C-84.30148891 14.83255187 -84.30148891 14.83255187 -86 18.0625 C-88.3125854 30.03845664 -88.57224585 42.40867715 -89.125 54.5625 C-89.211681 56.36851648 -89.29891758 58.17450638 -89.38671875 59.98046875 C-89.59752617 64.34086724 -89.8009021 68.70155181 -90 73.0625 C-91.05348633 73.38863281 -92.10697266 73.71476562 -93.19238281 74.05078125 C-112.26972925 79.97292144 -130.5171213 86.61671542 -148.32348633 95.76074219 C-149.15775146 96.18645508 -149.9920166 96.61216797 -150.8515625 97.05078125 C-151.60260254 97.43790283 -152.35364258 97.82502441 -153.12744141 98.22387695 C-155 99.0625 -155 99.0625 -157 99.0625 C-157 99.7225 -157 100.3825 -157 101.0625 C-157.86044922 101.46855469 -157.86044922 101.46855469 -158.73828125 101.8828125 C-172.10417718 108.65702986 -184.52963469 118.18956341 -195.28515625 128.5859375 C-197 130.0625 -197 130.0625 -199 130.0625 C-199.2578125 130.67222656 -199.515625 131.28195313 -199.78125 131.91015625 C-201.13945777 134.308786 -202.19019565 135.05637228 -204.5 136.5 C-218.20916124 146.38450393 -227.1248591 164.79345479 -233 180.0625 C-233.31469238 180.87396484 -233.62938477 181.68542969 -233.95361328 182.52148438 C-242.67403537 205.20210301 -247.70241246 228.36112304 -252.5925293 252.09344482 C-253.20533051 255.054736 -253.83031803 258.01345572 -254.453125 260.97265625 C-257.00532367 273.23783136 -259.12540509 285.49557765 -260.62078857 297.93597412 C-260.89411885 300.18953011 -261.17640832 302.44200586 -261.46435547 304.69374084 C-262.7780485 315.14660729 -263.59580273 325.56930823 -264.11328125 336.08984375 C-264.1552746 336.91818159 -264.19726795 337.74651943 -264.24053383 338.59995842 C-265.17742123 357.42654281 -265.27151668 376.23378975 -265.19561768 395.07946777 C-265.18467079 398.51217935 -265.18519356 401.94485271 -265.18563557 405.37757874 C-265.18508118 421.46450171 -265.14997822 437.5227092 -264.21826172 453.58813477 C-263.80096733 461.07099967 -263.91676503 468.57135288 -264 476.0625 C-264.66 476.0625 -265.32 476.0625 -266 476.0625 C-267.26433111 473.53383779 -267.19226672 471.66466877 -267.28125 468.83422852 C-267.33635742 467.19726768 -267.33635742 467.19726768 -267.39257812 465.52723694 C-267.42802734 464.34391281 -267.46347656 463.16058868 -267.5 461.94140625 C-267.54060547 460.7305687 -267.58121094 459.51973114 -267.62304688 458.27220154 C-267.75309833 454.38993101 -267.8772254 450.50750707 -268 446.625 C-268.16159071 441.52195288 -268.32901459 436.41914621 -268.5 431.31640625 C-268.55317383 429.54445641 -268.55317383 429.54445641 -268.60742188 427.73670959 C-268.64416016 426.64225021 -268.68089844 425.54779083 -268.71875 424.42016602 C-268.74904297 423.45579117 -268.77933594 422.49141632 -268.81054688 421.49781799 C-268.9121372 418.92326233 -268.9121372 418.92326233 -270 416.0625 C-270.09239538 414.40101517 -270.12791251 412.73607273 -270.12939453 411.07202148 C-270.13254669 410.05764511 -270.13569885 409.04326874 -270.13894653 407.99815369 C-270.1369223 406.90434891 -270.13489807 405.81054413 -270.1328125 404.68359375 C-270.13376923 403.56058365 -270.13472595 402.43757355 -270.13571167 401.28053284 C-270.13639243 398.9058527 -270.13454536 396.5311707 -270.13037109 394.15649414 C-270.12501643 390.51118822 -270.13032219 386.86600523 -270.13671875 383.22070312 C-270.13605805 380.91666639 -270.13477705 378.61262974 -270.1328125 376.30859375 C-270.13483673 375.21276474 -270.13686096 374.11693573 -270.13894653 372.98789978 C-270.13579437 371.97667557 -270.13264221 370.96545135 -270.12939453 369.92358398 C-270.12859894 369.0310643 -270.12780334 368.13854462 -270.12698364 367.21897888 C-270 365.0625 -270 365.0625 -269 363.0625 C-268.84114803 361.67589288 -268.73566877 360.2829565 -268.65869141 358.8894043 C-268.60824677 358.02105453 -268.55780212 357.15270477 -268.50582886 356.25804138 C-268.45492096 355.31050491 -268.40401306 354.36296844 -268.3515625 353.38671875 C-268.23433147 351.35577797 -268.11680665 349.32485414 -267.99902344 347.29394531 C-267.93839722 346.22583618 -267.877771 345.15772705 -267.81530762 344.05725098 C-265.97912879 312.14731325 -262.62868531 281.33297887 -256 250.0625 C-255.72720215 248.77375977 -255.4544043 247.48501953 -255.17333984 246.15722656 C-253.73220546 239.41404158 -252.23438035 232.6861541 -250.67333984 225.96972656 C-250.04604578 223.26130823 -249.43825838 220.54912915 -248.83203125 217.8359375 C-245.69281854 204.17524687 -241.03835414 191.12882728 -236 178.0625 C-235.53956299 176.85424561 -235.53956299 176.85424561 -235.06982422 175.62158203 C-231.3306343 165.9500851 -226.51775228 157.88278511 -220.20800781 149.66894531 C-218.36313744 147.21558091 -216.67013859 144.65837993 -214.9375 142.125 C-211.86447565 137.91109236 -208.6888943 134.95359026 -204.46875 131.92578125 C-201.54526831 129.71929269 -198.91058609 127.25886136 -196.25 124.75 C-187.68246353 116.76296456 -178.5179235 109.78828598 -168.53515625 103.640625 C-166.19451438 102.18358445 -163.94573215 100.64284662 -161.6875 99.0625 C-155.78837032 95.10871611 -149.39213567 92.11960837 -143 89.0625 C-141.9584375 88.5571875 -140.916875 88.051875 -139.84375 87.53125 C-127.95100136 81.88519761 -115.67095363 77.10864866 -103.125 73.125 C-102.4652417 72.91351318 -101.8054834 72.70202637 -101.12573242 72.48413086 C-97.87920581 71.48653786 -95.44451286 71.0625 -92 71.0625 C-92.01047363 70.40580322 -92.02094727 69.74910645 -92.03173828 69.07250977 C-92.2041259 56.47621195 -92.12694097 43.94261155 -91.1875 31.375 C-91.11740723 30.34383057 -91.04731445 29.31266113 -90.97509766 28.25024414 C-90.43674405 21.75937597 -89.87115104 15.61463426 -84.75 11.0625 C-81.04725916 9.71604878 -78.8412707 10.21510209 -75 11.0625 C-72.58408473 12.40807306 -70.43149887 13.73418804 -68.1875 15.3125 C-66.95540655 16.13753205 -65.72102026 16.95915022 -64.484375 17.77734375 C-63.59008789 18.37071533 -63.59008789 18.37071533 -62.67773438 18.97607422 C-54.09237575 24.53556867 -41.38056684 30.85913657 -31 29.0625 C-22.08248006 26.36072351 -18.43803774 19.34638268 -14.01757812 11.7800293 C-7.12626832 0.14846392 -7.12626832 0.14846392 0 0 Z " fill="#C38BDF" transform="translate(303,101.9375)"/>
<path d="M0 0 C5.93796381 3.24672538 10.85232332 7.56861921 15.48828125 12.453125 C17.08351112 14.15618897 17.08351112 14.15618897 19.5 15.9375 C22.32993215 18.27219402 24.56026304 20.83646456 26.93359375 23.625 C29.2799351 26.32174015 31.73334484 28.90106734 34.1875 31.5 C40.20863334 37.96547029 45.45995791 44.97600651 50.63964844 52.12353516 C51.5724616 53.41025482 52.51367952 54.69091096 53.46191406 55.96630859 C57 60.77616611 57 60.77616611 57 63 C36.87 63 16.74 63 -4 63 C-7.15373666 55.43103202 -10.00976451 48.30469139 -12.25 40.5 C-12.50523437 39.63375 -12.76046875 38.7675 -13.0234375 37.875 C-15.98333634 27.7801871 -18.16519541 16.5419385 -14.875 6.1875 C-11.4422079 0.35175343 -6.52921715 -1.08820286 0 0 Z " fill="#FBFBFB" transform="translate(492,515)"/>
<path d="M0 0 C15.09913492 -0.58178485 27.99746262 3.97403043 39.37890625 14.18359375 C48.80635206 27.07194575 52.77666076 40.0814618 51.37890625 56.18359375 C50.34191673 61.93994374 49.13393073 66.61866203 45.37890625 71.18359375 C44.05890625 69.53359375 42.73890625 67.88359375 41.37890625 66.18359375 C41.68828125 65.50296875 41.99765625 64.82234375 42.31640625 64.12109375 C46.48494848 52.59630054 45.4471195 39.19331238 40.37890625 28.18359375 C36.36251087 20.94307824 31.64082721 15.30522457 24.37890625 11.18359375 C23.38890625 10.19359375 23.38890625 10.19359375 22.37890625 9.18359375 C11.93785715 4.41733359 -1.59822193 3.96382486 -12.44921875 7.58984375 C-22.21914927 11.49421941 -30.01924074 17.21775652 -34.46337891 27.04638672 C-39.61064936 39.7312912 -40.81472799 53.88317097 -35.55078125 66.8125 C-34.62109375 69.18359375 -34.62109375 69.18359375 -34.62109375 72.18359375 C-33.96109375 72.18359375 -33.30109375 72.18359375 -32.62109375 72.18359375 C-32.62109375 73.17359375 -32.62109375 74.16359375 -32.62109375 75.18359375 C-31.96109375 75.18359375 -31.30109375 75.18359375 -30.62109375 75.18359375 C-29.49041141 76.34853919 -28.36052087 77.51426235 -27.234375 78.68359375 C-17.35817772 87.86630502 -7.56044115 89.700658 5.37890625 90.18359375 C5.37890625 85.89359375 5.37890625 81.60359375 5.37890625 77.18359375 C5.70890625 77.18359375 6.03890625 77.18359375 6.37890625 77.18359375 C6.37890625 83.78359375 6.37890625 90.38359375 6.37890625 97.18359375 C-8.92538022 97.18359375 -22.34411656 93.18837844 -33.65625 82.3671875 C-43.35023997 71.59394617 -46.49598795 58.29221579 -45.94140625 44.13671875 C-45.53110003 39.07293953 -44.59541763 34.84722299 -42.62109375 30.18359375 C-42.19763672 29.01183594 -42.19763672 29.01183594 -41.765625 27.81640625 C-37.34598062 17.21603314 -28.04449151 8.39067578 -17.80859375 3.43359375 C-11.69422106 1.0024027 -6.47208549 0.32814241 0 0 Z " fill="#4A5271" transform="translate(462.62109375,447.81640625)"/>
<path d="M0 0 C3.95368678 1.54606856 6.54689234 3.17539653 9.4921875 6.2109375 C10.2553125 6.6440625 11.0184375 7.0771875 11.8046875 7.5234375 C20.58408692 13.03608365 24.06787019 21.26034047 27.8671875 30.5859375 C29.61845025 40.74326145 28.73604087 50.4793774 25.4921875 60.2109375 C17.84001359 58.12398098 17.84001359 58.12398098 15.4921875 54.2109375 C15.77526149 51.76072326 16.36828115 49.45043339 16.953125 47.0546875 C18.69027404 37.89059691 16.36265176 29.95940337 11.4921875 22.2109375 C11.1209375 21.6128125 10.7496875 21.0146875 10.3671875 20.3984375 C7.0496084 15.79068875 2.66585924 14.02824404 -2.5078125 12.2109375 C-3.18199219 11.97246094 -3.85617187 11.73398437 -4.55078125 11.48828125 C-12.99412 8.94348255 -20.15576582 11.18112964 -28.125 14.37109375 C-30.5078125 15.2109375 -30.5078125 15.2109375 -33.5078125 15.2109375 C-33.8378125 16.5309375 -34.1678125 17.8509375 -34.5078125 19.2109375 C-35.8278125 19.2109375 -37.1478125 19.2109375 -38.5078125 19.2109375 C-38.8378125 18.2209375 -39.1678125 17.2309375 -39.5078125 16.2109375 C-40.1678125 16.2109375 -40.8278125 16.2109375 -41.5078125 16.2109375 C-41.5078125 15.2209375 -41.5078125 14.2309375 -41.5078125 13.2109375 C-42.1678125 13.2109375 -42.8278125 13.2109375 -43.5078125 13.2109375 C-43.50390625 10.9765625 -43.50390625 10.9765625 -42.5078125 8.2109375 C-40.05389173 6.39619546 -37.34599452 5.20843504 -34.5703125 3.9609375 C-33.82845703 3.6103125 -33.08660156 3.2596875 -32.32226562 2.8984375 C-30.94795502 2.25053042 -29.57008849 1.61007709 -28.18774414 0.97949219 C-20.18829626 -2.68018837 -8.51523091 -1.91545283 0 0 Z " fill="#D1DDEF" transform="translate(479.5078125,453.7890625)"/>
</svg>
